<svg width="41" height="41" viewBox="0 0 41 41" fill="none" xmlns="http://www.w3.org/2000/svg">
<path d="M37.4459 29.3929V34.1929C37.4459 36.8329 35.2859 38.9929 32.6459 38.9929H6.96583C4.32583 38.9929 2.16583 36.8329 2.16583 34.1929V14.9129C2.16583 12.2729 4.32583 10.1129 6.96583 10.0729H32.6459C35.2859 10.0729 37.4459 12.2329 37.4459 14.8729V19.6729" stroke="#202020" stroke-width="1.92" stroke-linecap="round" stroke-linejoin="round"/>
<path d="M37.4458 29.3929H29.4058C26.7258 29.4329 24.5658 27.3129 24.5258 24.6329C24.4858 21.9529 26.6058 19.7929 29.2858 19.7529C29.3258 19.7529 29.3658 19.7529 29.4458 19.7529H37.4858C38.3658 19.7529 39.0858 20.4729 39.0858 21.3529V27.7929C39.0458 28.6729 38.3258 29.3929 37.4458 29.3929Z" stroke="#202020" stroke-width="1.92" stroke-linecap="round" stroke-linejoin="round"/>
<path d="M31.0058 26.1529C31.8895 26.1529 32.6058 25.4365 32.6058 24.5529C32.6058 23.6692 31.8895 22.9529 31.0058 22.9529C30.1222 22.9529 29.4059 23.6692 29.4059 24.5529C29.4059 25.4365 30.1222 26.1529 31.0058 26.1529Z" stroke="#202020" stroke-width="1.92" stroke-miterlimit="10"/>
<path d="M6.92584 16.5129H18.1658" stroke="#202020" stroke-width="1.92" stroke-linecap="round" stroke-linejoin="round"/>
<path d="M11.3258 9.67294L12.6058 4.59293C13.0058 2.95293 14.6458 1.91294 16.3258 2.23294L28.6858 4.63295C30.4458 4.95295 31.5658 6.67293 31.2058 8.39293" stroke="#202020" stroke-width="1.92" stroke-linecap="round" stroke-linejoin="round"/>
</svg>
