<svg width="34" height="32" viewBox="0 0 34 32" fill="none" xmlns="http://www.w3.org/2000/svg">
<path d="M19.3525 26.1846V22.6719C19.3525 22.5215 19.2988 22.3818 19.1914 22.2529C19.084 22.124 18.9443 22.0596 18.7725 22.0596H15.2275C15.0557 22.0596 14.916 22.124 14.8086 22.2529C14.7012 22.3818 14.6475 22.5215 14.6475 22.6719V26.1846C14.6475 26.3564 14.7012 26.5015 14.8086 26.6196C14.916 26.7378 15.0557 26.7969 15.2275 26.7969H18.7725C18.9443 26.7969 19.084 26.7378 19.1914 26.6196C19.2988 26.5015 19.3525 26.3564 19.3525 26.1846ZM19.3203 19.2881L19.6426 10.8447C19.6426 10.7803 19.6318 10.7158 19.6104 10.6514C19.5889 10.5869 19.5459 10.5332 19.4814 10.4902C19.417 10.4473 19.3472 10.4043 19.272 10.3613C19.1968 10.3184 19.1162 10.2969 19.0303 10.2969H14.9697C14.8838 10.2969 14.8032 10.3184 14.728 10.3613C14.6528 10.4043 14.583 10.4473 14.5186 10.4902C14.4541 10.5332 14.4111 10.5923 14.3896 10.6675C14.3682 10.7427 14.3574 10.8125 14.3574 10.877L14.6475 19.2881C14.6475 19.417 14.7119 19.519 14.8408 19.5942C14.9697 19.6694 15.1201 19.707 15.292 19.707H18.708C18.8584 19.707 18.998 19.6694 19.127 19.5942C19.2559 19.519 19.3203 19.417 19.3203 19.2881ZM19.0625 2.0791L33.21 28.0215C33.4033 28.3867 33.5 28.7734 33.5 29.1816C33.5 29.5898 33.3926 29.9766 33.1777 30.3418C32.9629 30.707 32.6729 30.9917 32.3076 31.1958C31.9424 31.3999 31.5557 31.502 31.1475 31.502H2.85254C2.44434 31.502 2.05762 31.3999 1.69238 31.1958C1.32715 30.9917 1.03711 30.707 0.822266 30.3418C0.607422 29.9766 0.5 29.5898 0.5 29.1816C0.5 28.7734 0.59668 28.3867 0.790039 28.0215L14.9375 2.0791C15.1309 1.71387 15.4155 1.41846 15.7915 1.19287C16.1675 0.967285 16.5703 0.854492 17 0.854492C17.4297 0.854492 17.8325 0.967285 18.2085 1.19287C18.5845 1.41846 18.8691 1.71387 19.0625 2.0791Z" fill="#FFCC01"/>
</svg>
