<svg width="26" height="26" viewBox="0 0 26 26" fill="none" xmlns="http://www.w3.org/2000/svg">
<path d="M11.375 10.8334H15.7083" stroke="#131313" stroke-width="1.5" stroke-linecap="round" stroke-linejoin="round"/>
<path d="M13.5417 8.66663L13.5417 13" stroke="#131313" stroke-width="1.5" stroke-linecap="round" stroke-linejoin="round"/>
<path d="M17.875 22.75C18.7725 22.75 19.5 22.0225 19.5 21.125C19.5 20.2275 18.7725 19.5 17.875 19.5C16.9775 19.5 16.25 20.2275 16.25 21.125C16.25 22.0225 16.9775 22.75 17.875 22.75Z" stroke="#131313" stroke-width="1.5" stroke-linecap="round" stroke-linejoin="round"/>
<path d="M9.20825 22.75C10.1057 22.75 10.8333 22.0225 10.8333 21.125C10.8333 20.2275 10.1057 19.5 9.20825 19.5C8.31079 19.5 7.58325 20.2275 7.58325 21.125C7.58325 22.0225 8.31079 22.75 9.20825 22.75Z" stroke="#131313" stroke-width="1.5" stroke-linecap="round" stroke-linejoin="round"/>
<path d="M4.01816 5.85H20.5011C21.9935 5.85 23.0715 7.22644 22.6627 8.61015L20.8703 14.6768C20.5952 15.6078 19.7129 16.25 18.7087 16.25H8.78761C7.78342 16.25 6.90107 15.6078 6.626 14.6768L4.01816 5.85ZM4.01816 5.85L3.25 3.25" stroke="#131313" stroke-width="1.5" stroke-linecap="round" stroke-linejoin="round"/>
</svg>
