<svg width="1290" height="467" viewBox="0 0 1290 467" fill="none" xmlns="http://www.w3.org/2000/svg">
<path d="M1060 54C1070.4 42 1074.67 13.3333 1075.5 0.5H0V467H870L854 453C850.667 429.833 849.2 379.7 870 364.5C896 345.5 886.5 335.5 877.5 329C870.3 323.8 874.5 314.833 877.5 311L886.5 293L910.5 287.5L893 273V257L897 243C901.5 241 911.8 236.7 917 235.5C923.5 234 932.5 216 932.5 204C932.5 192 917 186 910.5 179C904 172 903.5 135 917 127C930.5 119 1047 69 1060 54Z" fill="url(#paint0_linear_2_6)"/>
<path d="M1099 46.5C1089.5 44 1062.5 18 1061 14.5L1052.5 0H1290V204.5C1283 197.667 1256.1 180 1250.5 178C1243.5 175.5 1232 130 1222 120C1214 112 1198.67 110.667 1192 111C1178.5 98.6667 1150.4 71.5 1146 61.5C1140.5 49 1134 46.5 1129 43.5C1124 40.5 1108.5 49 1099 46.5Z" fill="url(#paint1_linear_2_6)"/>
<defs>
<linearGradient id="paint0_linear_2_6" x1="4.16738e-08" y1="216.412" x2="1075.47" y2="207.468" gradientUnits="userSpaceOnUse">
<stop offset="0.794454" stop-color="#784D29"/>
<stop offset="1"/>
</linearGradient>
<linearGradient id="paint1_linear_2_6" x1="1052.5" y1="93.0297" x2="1278.51" y2="92.113" gradientUnits="userSpaceOnUse">
<stop offset="0.794454" stop-color="#784D29"/>
</linearGradient>
</defs>
</svg>
