<svg width="40" height="34" viewBox="0 0 40 34" fill="none" xmlns="http://www.w3.org/2000/svg">
<path d="M11.84 32.1049C14.0933 32.1049 15.92 30.2783 15.92 28.0249C15.92 25.7716 14.0933 23.9449 11.84 23.9449C9.58667 23.9449 7.75999 25.7716 7.75999 28.0249C7.75999 30.2783 9.58667 32.1049 11.84 32.1049Z" stroke="#202020" stroke-width="1.92" stroke-linecap="round" stroke-linejoin="round"/>
<path d="M29.8 32.1049C32.0533 32.1049 33.88 30.2783 33.88 28.0249C33.88 25.7716 32.0533 23.9449 29.8 23.9449C27.5467 23.9449 25.72 25.7716 25.72 28.0249C25.72 30.2783 27.5467 32.1049 29.8 32.1049Z" stroke="#202020" stroke-width="1.92" stroke-linecap="round" stroke-linejoin="round"/>
<path d="M33.88 17.3849H30.6L29.8 13.3049" stroke="#202020" stroke-width="1.92" stroke-linecap="round" stroke-linejoin="round"/>
<path d="M25.72 28.0249H15.92" stroke="#202020" stroke-width="1.92" stroke-linecap="round" stroke-linejoin="round"/>
<path d="M29 10.0649H30.52C31.6 10.0649 32.6 10.5849 33.24 11.4249L38.24 18.5449C38.6 19.0649 38.8 19.6649 38.8 20.2649V25.6649C38.76 26.9849 37.68 28.0249 36.36 27.9849H33.92" stroke="#202020" stroke-width="1.92" stroke-linecap="round" stroke-linejoin="round"/>
<path d="M2.84 23.9449V26.3849C2.84 27.3049 3.56 28.0249 4.48 28.0249H7.76" stroke="#202020" stroke-width="1.92" stroke-linecap="round" stroke-linejoin="round"/>
<path d="M27.36 20.6649H3.67999" stroke="#202020" stroke-width="1.92" stroke-linecap="round" stroke-linejoin="round"/>
<path d="M5.31999 1.06494H24.12C25.04 1.06494 25.76 1.78494 25.76 2.70494V17.3849" stroke="#202020" stroke-width="1.92" stroke-linecap="round" stroke-linejoin="round"/>
<path d="M11.84 5.98499H2.84" stroke="#202020" stroke-width="1.92" stroke-miterlimit="10" stroke-linecap="round"/>
<path d="M19.2 10.865H9.39999" stroke="#202020" stroke-width="1.92" stroke-miterlimit="10" stroke-linecap="round"/>
<path d="M14.28 15.7849H1.2" stroke="#202020" stroke-width="1.92" stroke-miterlimit="10" stroke-linecap="round"/>
<path d="M6.12 10.865H4.48" stroke="#202020" stroke-width="1.92" stroke-miterlimit="10" stroke-linecap="round"/>
</svg>
