<svg width="259" height="288" viewBox="0 0 259 288" fill="none" xmlns="http://www.w3.org/2000/svg">
<path d="M124.533 1.21836e-05H141.956C142.49 0.748459 143.311 0.512107 144.02 0.551499C152.144 1.03546 159.784 3.05007 167.138 6.70789C190.746 18.4298 209.491 35.1264 221.303 58.9866C224.873 66.201 228.106 73.5729 228.269 81.9015C228.438 90.2413 228.949 98.5699 229.084 106.91C229.135 109.982 230.006 112.34 232.07 114.698C238.901 122.492 244.838 130.911 247.666 141.079C250.342 150.697 249.633 159.661 241.875 166.999C241.47 167.382 241.155 167.866 240.857 168.339C238.777 171.58 239.238 174.529 242.218 176.932C243.904 178.294 245.439 179.79 246.699 181.563C250.083 186.346 249.875 190.95 246.097 195.429C245.625 195.992 245.057 196.583 244.86 197.252C241.796 207.894 243.01 219.818 253.794 227.725C257.252 230.257 258.59 233.296 258.893 237.111C259.973 250.949 253.237 261.917 245.743 273.042C243.213 269.925 240.857 267.156 238.664 264.264C237.63 262.896 236.483 262.44 234.824 262.66C229.742 263.341 226.104 266.002 224.108 270.662C221.73 276.222 221.196 282.046 222.321 288H221.196C220.786 287.797 220.392 287.544 219.959 287.404C213.719 285.35 209.463 281.382 207.956 274.832C207.084 271.033 207.332 267.207 207.894 263.374C208.22 261.163 210.205 258.304 209.001 257.06C207.736 255.749 204.616 256.261 202.317 255.924C190.083 254.123 179.187 249.593 171.085 239.869C160.903 227.652 158.137 213.178 158.733 197.742C158.778 196.509 159.503 195.924 160.324 195.294C164.681 191.963 168.381 187.995 171.411 183.437C182.425 166.87 185.939 148.159 186.912 128.727C186.985 127.303 186.17 127.033 185.118 126.758C179.395 125.272 175.172 121.676 171.788 117.011C166.75 110.072 163.821 102.205 162.039 93.8878C161.64 92.0308 161.038 91.1473 158.862 90.9447C151.508 90.2525 144.587 88.0185 138.262 84.1187C129.666 78.8176 123.245 71.5358 118.613 62.605C118.107 61.6259 117.938 60.0108 116.094 60.99C113.075 62.5938 109.1 70.9167 109.763 74.2876C110.359 77.3264 110.741 80.4046 110.764 83.4996C110.837 93.5783 107.869 102.155 98.6705 107.568C97.7597 108.103 96.8658 108.947 95.6233 108.339C101.752 99.656 102.224 87.9115 96.6634 82.9875C93.0539 91.4399 87.4092 98.5755 81.8375 105.75C80.8199 107.062 80.2802 108.395 80.089 110.061C79.3244 116.853 78.2955 123.623 77.5815 130.421C76.9743 136.184 75.4675 141.884 75.9679 147.725C76.7775 157.123 81.3034 164.979 86.6895 172.407C93.0483 181.18 100.621 188.822 108.881 195.806C109.651 196.459 110.466 196.982 110.539 198.231C111.231 210.128 110.101 221.709 103.927 232.204C97.0569 243.875 87.1 251.776 73.5054 253.498C56.4643 255.659 40.0418 259.638 24.4738 266.959C23.7091 267.319 22.9895 268.107 21.8931 267.668C22.1743 265.772 22.2249 263.932 21.91 262.058C20.6844 254.815 16.9456 248.794 12.7682 242.981C12.3409 242.39 11.745 241.478 11.2334 241.489C10.3169 241.501 10.1202 242.604 9.86154 243.391C8.42787 247.764 8.79331 252.283 8.82705 256.773C8.83267 257.713 9.22622 258.732 8.42224 259.891C5.85288 256.205 3.79514 252.536 2.547 248.512C-0.730771 237.967 -1.99578 227.708 6.13399 218.355C9.34991 214.652 9.72098 210.347 7.08415 205.603C1.38319 195.339 4.55976 182.21 13.932 175.153C22.8433 168.44 26.4191 159.267 25.795 148.361C25.4801 142.846 23.31 137.613 23.0738 132.042C22.5903 120.551 24.946 109.988 34.4757 102.633C40.469 98.0071 44.2416 92.2953 45.7933 85.1372C47.0808 79.2059 47.6318 73.1171 48.6775 67.1239C54.1142 35.9198 75.788 14.4794 106.733 9.62852C107.542 9.49909 108.386 9.63978 108.819 8.59871C110.59 4.33875 114.357 2.79121 118.399 1.55318C120.429 0.934164 122.638 1.06359 124.55 -0.00561523L124.533 1.21836e-05Z" fill="url(#paint0_linear_777_715)"/>
<defs>
<linearGradient id="paint0_linear_777_715" x1="129.512" y1="-0.00561523" x2="129.512" y2="288" gradientUnits="userSpaceOnUse">
<stop offset="0.569664" stop-color="#1D1D1D" stop-opacity="0"/>
<stop offset="0.625385" stop-color="#1D1D1D"/>
</linearGradient>
</defs>
</svg>
