<svg width="692" height="539" viewBox="0 0 692 539" fill="none" xmlns="http://www.w3.org/2000/svg">
<path d="M429.475 262.5C370.675 280.1 142.899 321.167 19.0653 329.501C15.7319 326.001 149.2 286.501 238 268.501C332.5 249.345 422.5 225 560.565 233.001C549.898 237.001 488.275 244.9 429.475 262.5Z" fill="#761415"/>
<path d="M414.032 218.661C356.177 239.156 135.946 273.853 12.679 288.319C9.17617 284.988 132.242 252.343 220.039 229.96C313.473 206.14 448.112 182.087 560.385 168C549.929 172.524 471.886 198.166 414.032 218.661Z" fill="#761415"/>
<path d="M430.641 165.73C368.786 177.974 140.272 225.415 16.0415 229.207C12.9693 224.495 139.038 193.263 229 175C324.737 155.565 532.739 117.128 646 112.5C635.06 117.069 500 152.001 430.641 165.73Z" fill="#761415"/>
<path d="M436 113C383.5 121 148.333 137.167 24.4998 145.5C21.1664 142 161.7 105.5 250.5 87.5001C339.3 69.5001 562 54.9996 691.5 55C680.833 59 464.175 108.707 436 113Z" fill="#761415"/>
<path d="M411.558 49.7734C359.058 57.7734 123.892 73.94 0.0582317 82.2733C-3.2751 78.7733 137.258 42.2733 226.058 24.2733C314.858 6.27332 460.558 -7.72656 579.558 4.77333C568.891 8.77333 439.733 45.4801 411.558 49.7734Z" fill="#761415"/>
<path d="M410.475 309C351.675 326.6 123.899 367.666 0.0655035 376C-3.26783 372.5 164.2 327 253 309C347.5 289.844 426.435 248 561 255.5C550.333 259.5 469.275 291.4 410.475 309Z" fill="#761415"/>
<path d="M412.5 367.5C353.7 385.1 123.899 413.667 0.0655265 422C-3.26781 418.5 166.7 376.5 255.5 358.5C350 339.345 440.232 337.5 553.065 329C542.399 333 471.3 349.9 412.5 367.5Z" fill="#761415"/>
<path d="M417.475 402C358.675 419.6 130.899 460.667 7.06554 469C3.73221 465.5 128.266 439 217.066 421C311.566 401.845 433.667 373.5 546.5 365C535.833 369 476.275 384.4 417.475 402Z" fill="#761415"/>
<path d="M410.475 433C351.675 450.6 123.899 491.667 0.065539 500C-3.26779 496.5 121.266 470 210.066 452C304.566 432.845 440.232 415.5 553.066 407C542.399 411 469.275 415.4 410.475 433Z" fill="#761415"/>
<path d="M410.475 472C351.675 489.6 123.899 530.667 0.065539 539C-3.26779 535.5 121.266 509 210.066 491C304.566 471.845 440.232 454.5 553.066 446C542.399 450 469.275 454.4 410.475 472Z" fill="#761415"/>
</svg>
