<svg width="668" height="667" viewBox="0 0 668 667" fill="none" xmlns="http://www.w3.org/2000/svg">
<circle cx="334" cy="358" r="223" fill="white"/>
<path fill-rule="evenodd" clip-rule="evenodd" d="M667.167 333.667C667.167 517.76 517.927 667 333.833 667C149.738 667 0.5 517.76 0.5 333.667C0.5 149.572 149.738 0.333374 333.833 0.333374C517.927 0.333374 667.167 149.572 667.167 333.667ZM468.177 232.656C477.94 242.419 477.94 258.248 468.177 268.01L301.51 434.677C291.747 444.44 275.92 444.44 266.156 434.677L199.489 368.01C189.726 358.247 189.726 342.42 199.489 332.657C209.252 322.893 225.081 322.893 234.844 332.657L283.833 381.643L358.327 307.15L432.823 232.656C442.587 222.893 458.413 222.893 468.177 232.656Z" fill="#54C18F"/>
</svg>
