<svg width="19" height="19" viewBox="0 0 19 19" fill="none" xmlns="http://www.w3.org/2000/svg">
<rect x="0.666626" y="0.0644531" width="18" height="18" rx="9" fill="white"/>
<path d="M14.858 6.9668C14.858 7.04492 14.8424 7.125 14.8112 7.20703C14.7799 7.28906 14.733 7.35742 14.6705 7.41211L8.90491 13.1777C8.85022 13.2402 8.78186 13.2871 8.69983 13.3184C8.6178 13.3496 8.53772 13.3652 8.45959 13.3652C8.37366 13.3652 8.28967 13.3496 8.20764 13.3184C8.12561 13.2871 8.05725 13.2402 8.00256 13.1777L4.66272 9.83789C4.60022 9.7832 4.55334 9.71484 4.52209 9.63281C4.49084 9.55078 4.47522 9.4668 4.47522 9.38086C4.47522 9.30273 4.49084 9.22266 4.52209 9.14062C4.55334 9.05859 4.60022 8.99023 4.66272 8.93555L5.57678 8.02148C5.63928 7.95898 5.70959 7.91211 5.78772 7.88086C5.86584 7.84961 5.94788 7.83398 6.03381 7.83398C6.11194 7.83398 6.19202 7.84961 6.27405 7.88086C6.35608 7.91211 6.42834 7.95898 6.49084 8.02148L8.45959 9.99023L12.8424 5.5957C12.9049 5.5332 12.9772 5.48633 13.0592 5.45508C13.1412 5.42383 13.2213 5.4082 13.2994 5.4082C13.3854 5.4082 13.4674 5.42383 13.5455 5.45508C13.6237 5.48633 13.694 5.5332 13.7565 5.5957L14.6705 6.50977C14.733 6.56445 14.7799 6.63281 14.8112 6.71484C14.8424 6.79688 14.858 6.88086 14.858 6.9668Z" fill="#282C3B"/>
</svg>
